<?xml version="1.0" encoding="utf-8"?>
<!-- Generator: Adobe Illustrator 22.0.1, SVG Export Plug-In . SVG Version: 6.00 Build 0)  -->
<svg version="1.1" id="Layer_1" xmlns="http://www.w3.org/2000/svg" xmlns:xlink="http://www.w3.org/1999/xlink" x="0px" y="0px"
	 viewBox="0 0 220.5 25" style="enable-background:new 0 0 220.5 25;" xml:space="preserve">
<style type="text/css">
	.st0{fill:#FFFFFF;}
</style>
<g fill="none" fill-rule="evenodd" stroke="#FFFFFF" stroke-width="0.75" className="discovestan-logo-lines">
	<path className="st0" d="M0,0.7h6c7.1,0,12.5,4.7,12.5,11.8c0,7.1-5.4,11.8-12.5,11.8H0V0.7z M6,23.8c6.8,0,11.9-4.5,11.9-11.3
		C17.9,5.7,12.8,1.2,6,1.2H0.6v22.5H6z M4.8,5.2H6c4.4,0,7.7,2.9,7.7,7.3c0,4.4-3.3,7.3-7.7,7.3H4.8V5.2z M5.4,19.2H6
		c4.1,0,7.1-2.7,7.1-6.7c0-4.1-3-6.7-7.1-6.7H5.4V19.2z"/>
	<path className="st0" d="M23.3,24.3V0.7h0.6v23.7H23.3z M28.7,0.7v23.7h-0.6V0.7H28.7z"/>
	<path className="st0" d="M49.4,17.8c0-7.4-10.7-6.5-10.7-10.8c0-1.3,1.2-2.5,3.1-2.5c1.7,0,3.2,0.7,4.8,2L46.3,7
		c-1.6-1.3-3-1.9-4.4-1.9c-1.4,0-2.4,0.7-2.4,1.9c0,3.7,10.7,3.1,10.7,10.8c0,3.9-3.7,7.2-8.4,7.2c-2.9,0-5.5-1-8.3-3.3l0.3-0.4
		c2.7,2.2,5.2,3.1,8,3.1C46.1,24.4,49.4,21.4,49.4,17.8z M45,17.8c0,1.4-1.2,2.7-3.3,2.7c-1.9,0-3.6-0.8-5.5-2.3l0.4-0.5
		c1.9,1.6,3.5,2.2,5.1,2.2c1.7,0,2.7-0.8,2.7-2.1c0-3.7-10.7-3.1-10.7-10.8c0-3.8,3.7-7,8.1-7c2.6,0,5,0.9,7.6,2.9l-0.3,0.4
		c-2.4-2-4.7-2.8-7.2-2.8c-4.1,0-7.5,3-7.5,6.5C34.3,14.5,45,13.6,45,17.8z"/>
	<path className="st0" d="M64.4,24.7c-6.7,0-12.2-5.5-12.2-12.2c0-6.7,5.5-12.2,12.2-12.2c3,0,5.8,1.1,8,3l-0.3,0.4
		c-2.2-1.9-4.9-2.9-7.7-2.9c-6.4,0-11.6,5.2-11.6,11.6s5.2,11.6,11.6,11.6c2.8,0,5.6-1,7.8-3l0.3,0.4C70.3,23.6,67.4,24.7,64.4,24.7
		z M64.4,19.6c1.8,0,3.4-0.6,5.1-2l0.3,0.4c-1.5,1.4-3.4,2.1-5.4,2.1c-4,0-7.4-3.4-7.4-7.6c0-4.2,3.3-7.6,7.4-7.6c2,0,3.7,0.7,5.3,2
		l-0.3,0.4c-1.7-1.3-3.2-1.9-5-1.9c-3.7,0-6.8,3-6.8,7.1S60.7,19.6,64.4,19.6z"/>
	<path className="st0" d="M86.1,0.3c6.7,0,12.2,5.5,12.2,12.2c0,6.7-5.5,12.2-12.2,12.2c-6.7,0-12.2-5.5-12.2-12.2
		C74,5.8,79.4,0.3,86.1,0.3z M86.1,24.1c6.4,0,11.6-5.2,11.6-11.6S92.5,0.9,86.1,0.9S74.6,6.1,74.6,12.5S79.8,24.1,86.1,24.1z
		 M86.1,4.9c4,0,7.4,3.4,7.4,7.6c0,4.2-3.3,7.6-7.4,7.6s-7.4-3.4-7.4-7.6C78.8,8.3,82.1,4.9,86.1,4.9z M86.1,19.6
		c3.7,0,6.8-3,6.8-7.1s-3-7.1-6.8-7.1c-3.7,0-6.8,3-6.8,7.1S82.4,19.6,86.1,19.6z"/>
	<path className="st0" d="M110,24.7h-0.3l-10.8-24h0.6l10.4,23l10.4-23h0.6L110,24.7z M110,14.1l-6-13.4h0.6l5.4,12l5.4-12h0.6L110,14.1
		z"/>
	<path className="st0" d="M137.7,1.2h-12.8v22.5h12.8v0.6h-13.4V0.7h13.4V1.2z M137.7,5.8h-8v3.7h7.3V10h-7.9V5.2h8.6V5.8z M137,14.5
		h-7.3v4.7h8v0.6h-8.6V14h7.9V14.5z"/>
	<path className="st0" d="M157.2,17.8c0-7.4-10.7-6.5-10.7-10.8c0-1.3,1.2-2.5,3.1-2.5c1.7,0,3.2,0.7,4.8,2L154,7
		c-1.6-1.3-3-1.9-4.4-1.9c-1.4,0-2.4,0.7-2.4,1.9c0,3.7,10.7,3.1,10.7,10.8c0,3.9-3.7,7.2-8.4,7.2c-2.9,0-5.5-1-8.3-3.3l0.3-0.4
		c2.7,2.2,5.2,3.1,8,3.1C153.8,24.4,157.2,21.4,157.2,17.8z M152.8,17.8c0,1.4-1.2,2.7-3.3,2.7c-1.9,0-3.6-0.8-5.5-2.3l0.4-0.5
		c1.9,1.6,3.5,2.2,5.1,2.2c1.7,0,2.7-0.8,2.7-2.1c0-3.7-10.7-3.1-10.7-10.8c0-3.8,3.7-7,8.1-7c2.6,0,5,0.9,7.6,2.9l-0.3,0.4
		c-2.4-2-4.7-2.8-7.2-2.8c-4.1,0-7.5,3-7.5,6.5C142.1,14.5,152.8,13.6,152.8,17.8z"/>
	<path className="st0" d="M160.1,0.7h17.4v0.6h-17.4V0.7z M166.1,24.3V5.8h-6V5.2h6.6v19.1H166.1z M170.9,24.3V5.2h6.6v0.6h-6v18.6
		H170.9z"/>
	<path className="st0" d="M187.2,0.3h0.3l10.8,24h-0.6l-10.4-23l-10.4,23h-0.6L187.2,0.3z M191.8,21.1l1.5,3.2h-0.6l-1.2-2.7H183
		l-1.2,2.7h-0.6l1.5-3.2H191.8z M184.3,17.4l2.9-6.4l2.9,6.4H184.3z M189.2,16.8l-2-4.5l-2,4.5H189.2z"/>
	<path className="st0" d="M215.7,0.7v13.2L202.4,1.4v22.9h-0.6v-24h0.3l13,12.1V0.7H215.7z M220.5,0.7v24h-0.3l-13-12.1v11.8h-0.6V11.2
		l13.3,12.4V0.7H220.5z"/>
</g>
</svg>
